<?xml version="1.0" standalone="no"?>
<!DOCTYPE svg PUBLIC "-//W3C//DTD SVG 20010904//EN"
 "http://www.w3.org/TR/2001/REC-SVG-20010904/DTD/svg10.dtd">
<svg version="1.0" xmlns="http://www.w3.org/2000/svg"
 width="910.000000pt" height="910.000000pt" viewBox="0 0 910.000000 910.000000"
 preserveAspectRatio="xMidYMid meet">
<metadata>
Created by potrace 1.14, written by Peter Selinger 2001-2017
</metadata>
<g transform="translate(0.000000,910.000000) scale(0.100000,-0.100000)"
fill="#000000" stroke="none">
<path d="M4200 8969 c-502 -44 -975 -161 -1405 -349 -129 -56 -343 -162 -440
-218 -174 -101 -471 -304 -595 -408 -173 -145 -443 -406 -540 -523 -25 -29
-50 -59 -55 -65 -9 -9 -47 -56 -102 -126 -57 -71 -158 -209 -166 -227 -6 -13
-14 -23 -19 -23 -4 0 -8 -6 -8 -14 0 -8 -3 -16 -7 -18 -9 -3 -83 -114 -83
-123 0 -3 -15 -29 -33 -58 -143 -226 -359 -702 -417 -922 -4 -16 -21 -75 -37
-130 -43 -146 -93 -369 -113 -500 -46 -317 -53 -432 -47 -790 5 -298 11 -384
37 -557 5 -38 14 -96 19 -130 9 -57 18 -103 52 -248 5 -25 14 -63 18 -85 5
-22 13 -53 19 -70 6 -16 21 -64 33 -105 106 -362 279 -745 489 -1081 52 -82
208 -309 220 -319 3 -3 19 -23 36 -45 16 -21 36 -47 44 -56 8 -9 24 -27 34
-40 144 -181 375 -414 576 -581 103 -86 106 -89 165 -133 47 -35 51 -38 90
-68 17 -13 45 -32 63 -42 17 -11 32 -23 32 -27 0 -4 4 -8 9 -8 5 0 38 -19 73
-42 71 -48 68 -46 239 -144 68 -39 178 -97 244 -128 66 -31 128 -61 138 -67
10 -5 70 -30 135 -55 435 -170 792 -256 1232 -299 193 -19 650 -19 846 0 649
62 1260 260 1819 588 103 60 295 185 345 224 8 7 54 41 101 77 48 35 97 72
109 83 28 24 54 45 114 96 56 48 356 344 401 397 17 19 55 64 84 100 30 36 57
67 60 70 31 25 331 458 331 477 0 5 5 14 12 21 13 13 60 95 108 187 17 33 35
67 40 75 60 95 241 542 291 718 5 17 13 47 18 65 37 128 53 194 80 327 11 58
25 128 30 155 10 50 20 116 43 300 17 133 17 776 0 900 -7 50 -17 128 -23 175
-6 47 -14 103 -19 125 -5 22 -17 81 -26 130 -9 50 -27 131 -40 180 -13 50 -29
115 -37 145 -20 75 -124 383 -149 439 -11 25 -24 55 -28 66 -39 91 -60 137
-118 255 -36 74 -73 146 -83 160 -9 14 -31 52 -48 85 -18 33 -50 87 -71 120
-22 33 -42 67 -46 75 -7 14 -107 161 -127 185 -4 6 -28 37 -53 70 -51 68 -54
72 -109 140 -22 28 -44 55 -50 61 -5 6 -35 39 -65 74 -100 114 -343 352 -457
447 -328 274 -680 496 -1023 647 -58 26 -114 51 -125 56 -56 26 -234 92 -345
128 -318 103 -632 166 -985 197 -172 16 -577 18 -735 4z m837 -59 c746 -87
1421 -340 2023 -760 91 -64 272 -202 306 -235 6 -5 40 -34 75 -64 65 -56 336
-324 399 -396 32 -36 102 -121 165 -200 74 -91 195 -261 195 -273 0 -6 3 -12
8 -14 14 -6 150 -229 212 -348 88 -170 163 -329 189 -400 7 -19 17 -44 22 -55
20 -46 52 -132 60 -160 4 -16 20 -64 35 -105 15 -41 30 -91 35 -110 4 -19 20
-78 34 -130 14 -52 30 -115 35 -140 4 -25 15 -76 24 -115 19 -82 34 -176 46
-295 5 -47 14 -123 21 -170 15 -108 15 -678 0 -780 -7 -41 -16 -115 -21 -165
-13 -127 -45 -318 -55 -336 -4 -5 -11 -34 -15 -62 -15 -92 -16 -93 -90 -347
-12 -41 -28 -88 -35 -105 -7 -16 -18 -50 -25 -75 -8 -25 -23 -67 -35 -95 -12
-27 -28 -66 -35 -85 -14 -38 -54 -128 -102 -230 -48 -101 -142 -274 -233 -428
-24 -40 -215 -315 -224 -322 -3 -3 -25 -30 -47 -60 -40 -54 -54 -71 -143 -174
-118 -137 -356 -371 -481 -472 -19 -16 -37 -31 -40 -34 -19 -20 -124 -101
-230 -176 -385 -276 -802 -485 -1232 -620 -1329 -416 -2761 -188 -3878 618
-74 53 -150 110 -169 125 -221 181 -444 395 -596 574 -143 168 -170 201 -174
213 -2 6 -10 17 -17 24 -13 12 -175 245 -201 287 -25 41 -112 192 -142 245
-48 86 -137 271 -191 395 -67 155 -156 418 -196 580 -14 55 -29 116 -34 135
-37 142 -74 382 -95 615 -34 369 -4 901 70 1240 29 135 66 283 91 365 22 71
85 263 94 285 4 11 20 52 36 90 81 204 248 546 290 596 8 8 14 18 14 22 0 15
169 271 249 376 47 62 95 126 106 141 73 99 322 361 500 525 51 47 212 178
290 236 33 24 69 52 79 62 11 9 23 17 27 17 4 0 14 6 21 13 23 22 230 152 343
216 581 328 1224 518 1895 561 186 12 555 2 747 -20z"/>
<path d="M4305 8843 c-495 -29 -999 -149 -1442 -340 -46 -20 -83 -38 -83 -42
1 -3 7 -17 15 -31 8 -14 14 -31 15 -38 0 -7 -42 -33 -92 -57 -128 -62 -297
-153 -308 -166 -3 -3 -16 -12 -30 -19 -38 -19 -277 -179 -289 -194 -10 -11 28
-70 122 -190 l23 -30 55 41 c208 157 587 356 895 472 946 354 2028 324 2959
-84 444 -194 861 -480 1210 -830 89 -89 181 -188 220 -236 11 -13 40 -49 65
-79 26 -30 72 -92 103 -136 31 -45 64 -87 72 -94 8 -7 15 -17 15 -22 0 -6 16
-32 35 -58 19 -26 35 -51 35 -55 0 -4 10 -21 23 -38 44 -61 257 -466 257 -489
0 -5 9 -28 21 -51 49 -98 170 -466 199 -607 6 -30 17 -82 25 -115 21 -94 33
-163 44 -260 6 -49 16 -139 23 -200 17 -142 17 -548 0 -690 -7 -60 -17 -150
-23 -200 -11 -94 -19 -142 -46 -260 -34 -154 -55 -242 -69 -285 -57 -181 -123
-371 -141 -405 -6 -11 -15 -31 -20 -45 -25 -66 -162 -343 -199 -401 -13 -21
-24 -42 -24 -45 0 -4 -11 -22 -25 -40 -14 -18 -25 -36 -25 -40 0 -3 -20 -35
-45 -70 -25 -34 -45 -65 -45 -69 0 -8 -53 -79 -62 -83 -5 -2 -8 -8 -8 -14 0
-6 -12 -25 -27 -43 -16 -18 -46 -56 -68 -85 -22 -29 -44 -57 -50 -64 -195
-227 -314 -347 -515 -520 -81 -70 -293 -228 -366 -273 -10 -7 -62 -39 -114
-72 -53 -32 -155 -90 -227 -128 -73 -37 -133 -72 -133 -78 0 -5 7 -23 15 -39
9 -16 14 -30 12 -32 -2 -2 -71 -32 -153 -68 -226 -96 -539 -195 -754 -236
-337 -66 -442 -75 -825 -75 -335 0 -387 4 -625 41 -233 37 -511 108 -738 190
-121 43 -402 162 -402 170 0 2 8 20 18 40 10 23 13 39 7 41 -31 10 -277 150
-376 213 -339 218 -669 507 -914 805 -22 26 -52 62 -66 79 -70 84 -233 319
-267 385 -7 14 -19 33 -26 41 -7 8 -20 31 -30 50 -9 19 -30 55 -46 80 -16 25
-29 51 -29 58 -1 7 -11 29 -24 50 -12 20 -28 48 -34 62 -6 14 -27 60 -47 103
-20 43 -36 81 -36 86 0 4 -9 26 -20 48 -50 104 -169 487 -193 623 -3 14 -14
70 -25 125 -58 291 -84 687 -61 945 7 85 13 189 14 230 l0 75 -120 16 c-66 9
-123 14 -126 10 -19 -17 -42 -458 -35 -663 l6 -188 -45 0 c-42 0 -45 -2 -45
-27 0 -40 30 -277 55 -438 4 -22 13 -67 20 -100 8 -33 23 -100 35 -150 11 -49
27 -110 34 -135 8 -25 24 -79 36 -120 12 -41 27 -86 32 -100 5 -14 16 -45 24
-70 8 -25 19 -54 24 -65 5 -11 27 -67 50 -125 50 -125 155 -343 222 -459 26
-46 48 -85 48 -87 0 -5 163 -259 184 -286 12 -14 43 -57 71 -95 46 -63 67 -91
120 -154 98 -119 128 -154 192 -219 39 -41 91 -95 115 -120 44 -45 236 -217
338 -301 86 -71 325 -239 430 -302 52 -31 102 -62 110 -67 29 -20 146 -81 275
-144 434 -212 851 -333 1385 -403 193 -25 786 -25 980 0 339 44 596 102 895
202 270 91 584 233 780 353 28 17 75 46 105 64 75 44 265 173 320 217 24 20
51 41 60 48 40 31 107 86 125 102 11 9 58 50 103 91 111 96 254 242 361 365
47 55 91 105 96 111 6 7 28 35 50 64 22 29 54 69 70 89 17 21 53 71 80 112 28
41 53 76 58 77 4 2 7 8 7 14 0 5 15 30 32 56 18 26 39 58 47 72 7 14 20 36 28
50 71 124 104 186 169 320 72 147 82 170 103 223 5 12 18 45 29 72 38 94 88
240 116 340 10 33 21 71 26 85 14 40 65 262 85 370 9 47 22 139 41 290 22 168
29 730 12 849 l-13 85 -45 0 -45 1 -7 65 c-11 111 -32 239 -68 400 -20 91 -26
116 -69 275 -17 62 -122 356 -148 415 -9 19 -24 55 -35 80 -34 78 -171 354
-188 380 -10 14 -28 45 -42 70 -53 94 -243 372 -317 461 -25 31 -59 72 -74 92
-84 108 -362 392 -477 488 -36 30 -67 57 -70 60 -3 3 -41 34 -85 68 -44 35
-82 65 -84 67 -1 1 9 19 24 39 15 19 26 37 24 38 -662 490 -1433 775 -2269
837 -122 9 -430 11 -555 3z"/>
<path d="M4385 8424 c-527 -22 -1056 -157 -1535 -392 -150 -73 -186 -93 -357
-196 -80 -48 -331 -229 -389 -281 -7 -5 -31 -26 -55 -45 -103 -84 -349 -329
-433 -432 -11 -13 -40 -48 -65 -78 -26 -30 -60 -73 -76 -95 -16 -22 -32 -42
-35 -45 -17 -15 -195 -285 -240 -365 -79 -141 -117 -214 -168 -325 -174 -378
-276 -752 -334 -1220 -17 -140 -17 -650 0 -790 46 -373 99 -603 209 -915 19
-55 46 -123 59 -152 13 -28 24 -54 24 -57 0 -18 121 -265 192 -389 21 -38 38
-73 38 -78 0 -5 3 -9 8 -9 4 0 20 -24 36 -52 29 -51 186 -278 209 -304 7 -6
30 -35 52 -64 135 -178 345 -391 585 -594 59 -49 191 -147 270 -199 47 -31 90
-60 95 -65 28 -23 224 -132 353 -197 1152 -576 2541 -534 3656 110 436 251
797 564 1119 970 71 90 227 310 227 321 0 4 11 22 25 40 14 18 25 35 25 38 0
3 19 38 43 78 124 212 242 485 323 743 13 44 31 100 38 125 26 82 79 322 95
430 53 344 61 781 20 1080 -19 141 -31 215 -45 280 -36 168 -57 259 -70 300
-8 25 -25 81 -38 125 -24 77 -59 179 -76 220 -4 11 -18 45 -30 75 -74 183
-194 417 -293 573 -20 32 -37 61 -37 66 0 5 -3 11 -8 13 -4 2 -36 46 -71 98
-35 52 -67 97 -71 100 -3 3 -19 23 -36 45 -109 148 -331 386 -504 540 -589
527 -1359 866 -2150 949 -150 16 -445 26 -585 20z m470 -54 c164 -15 266 -29
410 -56 133 -26 337 -73 344 -80 2 -2 -472 -4 -1055 -3 -1177 0 -1122 -4 -809
63 188 41 274 54 450 71 162 16 514 18 660 5z m-1365 -146 c0 -3 -22 -44 -50
-91 -27 -47 -50 -87 -50 -89 0 -2 -16 -28 -35 -58 -19 -30 -35 -57 -35 -60 0
-3 -16 -30 -35 -60 -19 -30 -35 -57 -35 -60 0 -3 -36 -66 -80 -142 -44 -75
-80 -138 -80 -140 0 -2 -16 -28 -35 -58 -19 -30 -35 -57 -35 -59 0 -3 -43 -78
-95 -167 -52 -89 -95 -164 -95 -167 0 -3 -8 -17 -19 -31 -10 -15 -35 -58 -56
-97 -21 -38 -43 -77 -49 -85 -7 -8 -22 -35 -35 -60 -13 -25 -29 -52 -35 -60
-7 -8 -20 -31 -31 -51 l-18 -36 -61 35 c-34 19 -88 51 -121 70 -41 25 -73 36
-100 36 -43 0 -51 -5 -470 -272 -62 -40 -193 -121 -261 -161 -50 -30 -52 -33
-58 -84 -9 -77 -27 -820 -20 -854 6 -32 36 -55 172 -133 50 -29 92 -56 92 -60
0 -7 -66 -128 -99 -180 -9 -14 -26 -45 -39 -70 -14 -25 -30 -52 -36 -60 -6 -8
-22 -35 -35 -60 -13 -25 -29 -52 -35 -60 -7 -8 -18 -28 -26 -45 -8 -16 -29
-54 -47 -83 -18 -29 -33 -55 -33 -58 0 -3 -16 -30 -35 -60 -19 -30 -35 -57
-35 -60 0 -3 -16 -30 -35 -60 -19 -30 -35 -56 -35 -58 0 -2 -23 -43 -51 -92
-29 -49 -65 -114 -82 -144 -16 -30 -35 -62 -41 -70 -6 -8 -22 -35 -35 -60 -13
-25 -29 -52 -35 -60 -7 -8 -22 -35 -35 -60 -13 -25 -30 -52 -37 -61 -8 -8 -14
-18 -14 -21 0 -4 -18 -38 -41 -78 l-40 -72 19 -36 c29 -55 58 -106 86 -151 15
-22 26 -43 26 -46 0 -2 16 -29 35 -59 19 -30 35 -58 35 -61 0 -4 8 -19 18 -33
11 -15 32 -52 47 -82 16 -30 34 -62 41 -70 6 -8 22 -35 35 -60 13 -25 29 -52
35 -60 6 -8 22 -35 36 -60 13 -25 31 -56 40 -70 20 -31 58 -98 98 -170 45 -82
84 -151 114 -198 14 -23 26 -44 26 -47 0 -2 16 -29 35 -59 19 -30 35 -57 35
-60 0 -3 15 -29 33 -58 18 -29 39 -66 47 -83 8 -16 24 -43 35 -60 12 -16 27
-43 35 -60 8 -16 19 -36 25 -44 12 -17 67 -111 97 -168 l22 -43 903 0 903 0 0
-130 c0 -130 8 -172 40 -197 13 -12 104 -62 290 -161 36 -19 88 -47 115 -62
28 -15 95 -51 150 -80 55 -29 128 -68 163 -88 l63 -34 62 33 c34 18 85 44 112
59 28 15 100 53 160 85 61 31 137 72 170 90 33 18 105 56 160 85 155 81 149
72 153 250 l3 150 917 0 917 0 35 57 c19 32 37 62 39 68 2 5 15 27 28 48 13
21 33 55 45 75 54 98 153 270 167 292 9 14 26 45 39 70 14 25 30 52 36 60 6 8
22 35 35 60 13 25 30 52 37 61 8 8 14 18 14 22 0 4 20 41 45 83 25 41 45 78
45 80 0 3 16 30 35 60 19 30 35 57 35 60 0 3 16 30 35 60 19 30 35 56 35 58 0
4 82 148 100 176 6 8 14 24 20 35 5 11 21 38 34 60 14 22 37 63 51 90 15 28
33 57 41 66 8 8 14 18 14 22 0 4 20 41 45 83 25 41 45 83 45 91 0 9 -26 62
-59 117 -32 56 -69 119 -81 141 -12 22 -26 45 -30 50 -4 6 -19 30 -32 55 -14
25 -57 101 -97 169 -39 68 -71 126 -71 129 0 3 -6 13 -14 21 -7 9 -24 36 -38
61 -13 25 -31 56 -40 70 -19 29 -56 95 -93 165 -15 28 -33 57 -39 65 -7 8 -18
29 -26 45 -8 17 -29 53 -47 82 -18 29 -33 54 -33 57 0 3 -16 30 -35 60 -19 30
-35 58 -35 61 0 3 -15 29 -33 58 -18 29 -39 66 -47 82 -8 17 -25 44 -38 62
-22 30 -22 32 -4 37 34 11 233 134 247 153 11 13 15 60 16 183 2 119 4 145 8
93 l6 -73 99 59 c54 33 103 65 107 73 10 16 11 229 2 517 l-6 212 -189 119
c-103 66 -201 127 -216 135 -15 8 -62 37 -104 64 -42 27 -86 52 -97 56 -20 6
-121 -39 -204 -92 l-38 -24 78 -49 c43 -27 107 -66 143 -88 36 -22 136 -85
224 -141 87 -55 164 -102 170 -104 8 -3 11 -87 12 -288 2 -329 -4 -318 -14 31
l-7 244 -195 123 c-107 68 -211 132 -230 143 -19 12 -54 33 -77 48 -155 99
-250 154 -274 159 -27 5 -54 -7 -232 -106 -32 -18 -60 -31 -62 -29 -6 6 -95
160 -95 164 0 2 -16 28 -35 58 -19 30 -35 58 -35 61 0 3 -16 31 -35 61 -19 30
-35 57 -35 60 0 3 -16 30 -35 60 -19 30 -35 56 -35 58 0 2 -36 64 -79 139 -43
74 -90 154 -104 178 -13 24 -41 72 -61 107 -83 144 -106 184 -106 190 0 3 -6
13 -14 21 -8 9 -26 39 -41 66 -14 28 -37 68 -51 90 -13 22 -29 49 -34 60 -6
11 -20 36 -31 55 -53 89 -80 140 -74 140 19 0 298 -100 410 -147 455 -192 861
-463 1205 -805 122 -122 220 -229 306 -337 10 -13 31 -38 47 -56 15 -18 27
-37 27 -43 0 -6 4 -12 9 -14 10 -4 131 -173 131 -183 0 -4 16 -29 35 -55 19
-26 35 -51 35 -55 0 -4 8 -19 19 -33 34 -49 107 -189 175 -337 21 -44 42 -89
48 -99 13 -24 60 -149 99 -266 16 -47 34 -98 40 -115 10 -27 40 -139 70 -255
20 -80 36 -163 48 -250 7 -47 17 -110 22 -140 33 -190 36 -741 5 -935 -8 -49
-19 -126 -26 -170 -13 -94 -35 -207 -48 -250 -5 -16 -15 -55 -21 -85 -15 -69
-75 -266 -106 -345 -12 -33 -29 -76 -35 -95 -7 -19 -24 -60 -37 -90 -14 -30
-28 -64 -33 -75 -31 -75 -157 -319 -196 -377 -13 -21 -24 -41 -24 -44 0 -4
-11 -22 -25 -40 -14 -18 -25 -36 -25 -39 0 -7 -174 -257 -193 -277 -7 -7 -24
-29 -39 -48 -15 -19 -38 -48 -53 -65 -14 -16 -47 -55 -73 -85 -107 -124 -305
-315 -447 -430 -588 -478 -1282 -767 -2034 -845 -187 -20 -591 -20 -776 0
-553 59 -1064 226 -1540 503 -104 61 -274 169 -285 182 -3 3 -21 17 -40 30
-19 13 -60 44 -90 68 -30 24 -64 50 -75 59 -140 110 -411 380 -536 533 -124
152 -329 442 -329 466 0 3 -8 18 -19 32 -40 58 -191 351 -191 371 0 4 -11 28
-23 52 -23 43 -41 87 -89 224 -29 80 -70 211 -86 270 -26 100 -42 164 -52 215
-7 30 -16 71 -21 91 -5 20 -9 49 -9 64 0 15 -6 62 -14 104 -27 143 -36 286
-36 549 0 258 7 372 35 542 33 204 39 239 57 310 11 41 23 93 28 115 17 79 91
313 125 390 7 17 18 46 25 65 39 105 180 394 249 508 195 322 345 515 601 772
102 102 140 138 265 245 169 145 531 381 730 474 238 112 333 152 515 212 121
40 130 43 130 33z m-965 -1664 c3 -6 -2 -22 -13 -38 -10 -15 -31 -50 -47 -79
l-27 -51 23 -43 c13 -24 34 -59 47 -78 12 -18 22 -38 22 -42 0 -5 -91 -9 -203
-9 l-203 0 -17 -32 c-9 -18 -28 -53 -43 -78 -14 -25 -52 -91 -85 -147 -32 -56
-59 -108 -59 -117 0 -9 16 -40 35 -70 19 -30 35 -59 35 -64 0 -5 6 -15 13 -21
8 -6 25 -32 38 -58 13 -27 36 -66 51 -87 16 -21 28 -43 28 -48 0 -4 -47 -8
-105 -8 -92 0 -106 -2 -112 -17 -4 -10 -21 -42 -40 -71 -18 -29 -33 -57 -33
-62 0 -17 -14 -10 -34 17 -18 25 -19 40 -11 322 4 163 10 338 14 389 l6 94
180 113 c99 62 245 153 325 203 141 89 198 110 215 82z m4164 -12 c20 -12 65
-40 101 -63 85 -54 385 -241 452 -282 29 -17 59 -37 66 -43 9 -8 12 -65 13
-213 1 -111 4 -283 8 -382 5 -143 3 -185 -8 -202 -19 -33 -38 -28 -58 15 -9
20 -28 53 -41 72 l-23 35 -104 5 -104 5 105 175 c57 96 103 177 102 180 -2 3
-50 88 -107 188 l-104 183 -207 -3 -207 -3 34 52 c18 29 33 55 33 58 0 4 9 20
20 35 l20 29 -30 51 c-16 28 -30 53 -30 56 0 3 -9 17 -20 31 -11 14 -17 29
-14 34 10 16 66 9 103 -13z m-315 -740 c9 -18 21 -40 26 -48 26 -40 150 -259
150 -264 0 -3 -85 -6 -190 -6 -104 0 -190 4 -190 8 0 4 4 12 9 18 5 5 28 45
52 89 23 44 55 103 70 130 16 28 34 62 40 78 6 15 12 27 14 27 1 0 10 -15 19
-32z m-3564 -63 c18 -33 40 -71 49 -85 9 -14 23 -38 31 -55 8 -16 25 -45 38
-64 12 -19 22 -38 22 -42 0 -5 -88 -9 -195 -9 -107 0 -195 3 -195 8 0 4 9 18
20 32 11 14 20 29 20 33 0 4 16 33 35 63 19 30 35 57 35 60 0 3 15 28 33 57
18 29 36 61 40 71 7 17 10 18 21 5 8 -8 28 -41 46 -74z m1943 -181 c215 -47
389 -143 528 -289 148 -156 225 -302 271 -510 16 -76 17 -333 0 -397 -6 -27
-17 -69 -24 -95 -6 -27 -17 -59 -24 -73 -7 -14 -24 -50 -38 -80 -121 -255
-351 -448 -641 -536 -84 -26 -102 -28 -270 -28 -167 0 -186 2 -268 27 -198 61
-339 148 -476 294 -50 53 -96 109 -103 125 -7 15 -15 28 -18 28 -6 0 -40 66
-80 153 -31 68 -43 116 -70 287 -23 143 14 360 87 518 34 72 122 212 134 212
5 0 9 5 9 12 0 29 178 182 280 240 68 39 216 95 295 112 97 20 316 20 408 0z
m1513 -1061 c-12 -3 -15 -8 -8 -12 8 -4 3 -16 -13 -35 -14 -16 -25 -33 -25
-37 0 -5 -23 -16 -50 -26 -38 -13 -46 -19 -33 -25 10 -3 -43 -6 -117 -5 l-135
1 105 6 c96 6 100 6 40 10 -36 2 -80 4 -99 4 l-35 1 3 57 c2 52 1 57 -21 61
-13 2 74 4 192 4 118 1 206 -2 196 -4z m398 -69 c3 -8 2 -12 -4 -9 -6 3 -10
10 -10 16 0 14 7 11 14 -7z m-2055 -1805 c23 -39 41 -73 41 -77 0 -3 6 -13 14
-21 8 -9 26 -38 40 -66 15 -27 35 -61 44 -74 l17 -24 -64 6 c-35 4 -127 7
-204 7 l-139 0 15 23 c9 12 28 45 43 72 14 28 31 56 38 64 6 8 18 28 26 45 30
63 72 126 80 121 5 -3 27 -37 49 -76z m-399 -756 c35 -59 80 -136 99 -170 l36
-62 213 -1 213 0 22 37 c40 66 113 194 166 291 l14 25 34 -54 c19 -30 41 -69
50 -86 l15 -33 90 0 c78 0 89 -2 84 -16 -3 -9 -6 -22 -6 -30 0 -8 -4 -14 -8
-14 -7 0 -220 -112 -433 -228 -41 -22 -115 -61 -165 -88 l-92 -47 -111 61
c-62 34 -114 62 -116 62 -2 0 -57 29 -122 64 -65 35 -161 87 -213 114 -105 56
-140 82 -140 106 0 14 16 16 105 16 72 0 105 4 105 12 0 16 84 157 91 152 3
-2 35 -52 69 -111z"/>
<path d="M1854 6823 c-59 -34 -345 -212 -375 -233 -11 -8 -61 -40 -112 -71
l-92 -55 -7 -300 c-3 -164 -9 -319 -11 -344 -6 -55 13 -106 45 -120 13 -6 56
-31 97 -55 40 -25 75 -44 76 -43 2 2 8 165 15 363 7 198 14 363 17 367 2 4 45
33 96 64 51 30 142 87 202 125 138 87 239 149 273 170 48 28 42 35 -127 125
-55 29 -58 29 -97 7z"/>
<path d="M3900 1281 c0 -60 4 -120 9 -133 6 -16 39 -40 102 -72 52 -27 99 -52
104 -56 6 -4 57 -32 115 -63 58 -30 139 -74 180 -97 147 -80 126 -77 205 -32
39 21 122 66 185 99 285 150 364 195 376 211 14 17 21 252 8 252 -6 0 -170
-85 -274 -142 -25 -14 -83 -45 -130 -70 -47 -25 -119 -64 -160 -86 l-76 -40
-69 37 c-39 20 -113 60 -165 88 -52 28 -124 66 -160 85 -36 19 -104 56 -151
81 -47 26 -89 47 -92 47 -4 0 -7 -49 -7 -109z"/>
<path d="M4447 5559 c-103 -11 -185 -32 -279 -72 -89 -37 -88 -34 -58 -144 40
-152 110 -239 249 -310 l74 -38 126 0 c124 0 127 1 201 36 79 38 175 123 206
182 28 54 64 169 64 202 0 30 -5 34 -59 59 -165 74 -349 104 -524 85z"/>
<path d="M4005 5403 c-41 -27 -75 -54 -133 -105 l-34 -29 27 -21 c76 -59 133
-142 169 -245 14 -42 17 -75 14 -165 -3 -106 -6 -118 -40 -188 -19 -41 -55
-96 -77 -122 -74 -83 -193 -147 -304 -163 -52 -8 -55 -14 -36 -74 114 -353
360 -594 709 -692 75 -21 105 -24 260 -23 160 0 182 2 262 27 223 68 405 193
536 369 41 54 132 225 132 247 0 6 6 24 14 39 7 15 16 43 19 63 l5 37 -66 16
c-100 24 -170 63 -244 137 -137 135 -182 317 -122 495 31 93 61 142 126 207
l50 50 -33 31 c-78 72 -154 126 -177 126 -5 0 -12 -24 -14 -54 -9 -104 -99
-248 -198 -317 -226 -156 -548 -98 -699 126 -24 35 -39 67 -72 153 -5 13 -9
41 -9 62 0 48 -11 50 -65 13z m662 -604 c79 -29 162 -113 186 -188 22 -68 22
-154 0 -222 -24 -74 -106 -158 -186 -187 -166 -62 -345 17 -411 183 -33 84
-34 146 -1 227 69 171 241 249 412 187z"/>
<path d="M4445 4736 c-53 -25 -98 -69 -129 -125 -28 -51 -27 -162 2 -221 75
-154 273 -198 405 -89 43 35 88 123 94 183 6 51 -27 144 -68 191 -73 83 -203
109 -304 61z m197 -102 c21 -15 36 -29 33 -32 -3 -3 -16 5 -30 18 -16 15 -41
24 -73 28 -66 6 -115 -18 -147 -72 -14 -22 -25 -35 -25 -28 0 22 32 62 69 88
51 34 122 33 173 -2z m58 -65 c0 -6 -4 -7 -10 -4 -5 3 -10 11 -10 16 0 6 5 7
10 4 6 -3 10 -11 10 -16z m12 -96 c-9 -25 -10 -21 -10 27 0 48 1 52 10 28 6
-19 6 -37 0 -55z m-233 -101 c70 -40 144 -24 195 40 14 18 26 29 26 23 -1 -37
-88 -95 -143 -95 -70 0 -157 65 -157 117 0 10 9 1 20 -23 13 -25 35 -49 59
-62z"/>
<path d="M3777 5198 c-83 -103 -161 -256 -187 -368 -7 -30 -16 -68 -21 -84
-12 -38 -11 -327 0 -345 7 -11 20 -12 71 -3 165 30 309 151 360 303 29 90 29
227 -1 311 -32 90 -138 227 -176 228 -6 0 -27 -19 -46 -42z"/>
<path d="M5257 5210 c-27 -21 -107 -131 -121 -165 -46 -115 -47 -268 -3 -365
73 -160 192 -251 373 -285 31 -6 31 -5 38 41 27 199 -18 439 -115 612 -42 75
-121 181 -135 182 -6 0 -23 -9 -37 -20z"/>
<path d="M6000 4491 c0 -6 5 -13 11 -16 6 -4 8 -13 5 -21 -3 -8 0 -11 10 -7 7
3 14 11 14 19 0 9 12 14 35 14 31 0 35 -3 35 -25 0 -21 -5 -25 -30 -25 -16 0
-30 -4 -30 -10 0 -18 45 -11 68 10 26 25 26 22 3 48 -20 23 -60 29 -78 11 -8
-8 -13 -8 -17 0 -9 13 -26 14 -26 2z"/>
<path d="M1675 7741 c-116 -102 -323 -316 -405 -418 -8 -10 -32 -38 -52 -62
-21 -25 -38 -52 -38 -61 0 -10 35 -44 77 -76 97 -74 108 -82 151 -119 l34 -29
26 29 c186 220 310 350 465 488 37 33 67 66 67 73 0 12 -32 52 -119 149 -15
17 -42 49 -61 73 -18 23 -36 42 -39 42 -3 0 -51 -40 -106 -89z"/>
<path d="M1015 6988 c-78 -114 -131 -196 -141 -218 -4 -8 -15 -26 -24 -40 -41
-60 -200 -368 -200 -387 0 -9 293 -148 312 -148 4 0 38 61 76 135 80 158 114
220 153 277 16 23 29 44 29 47 0 3 34 53 75 113 41 59 75 112 75 119 0 6 -12
20 -26 30 -14 10 -38 28 -52 39 -74 57 -188 135 -197 135 -6 0 -42 -46 -80
-102z"/>
<path d="M568 6158 c-23 -56 -36 -91 -83 -218 -7 -19 -17 -51 -23 -70 -5 -19
-21 -73 -35 -120 -24 -79 -49 -179 -78 -308 -6 -30 -8 -57 -3 -61 5 -4 74 -20
154 -35 80 -15 153 -29 162 -32 21 -6 33 19 47 99 13 66 25 119 44 182 8 28
22 77 31 110 19 69 52 162 103 288 20 50 32 92 27 97 -10 8 -303 130 -314 130
-4 0 -18 -28 -32 -62z"/>
</g>
</svg>
